<svg width="223" height="216" viewBox="0 0 223 216" fill="none" xmlns="http://www.w3.org/2000/svg">
<g clip-path="url(#clip0_2_1323)">
<path d="M0.448445 177.515C2.39515 176.495 3.22158 173.787 5.33357 173.081C7.50065 172.355 9.90647 173.787 11.8899 172.218C12.7531 171.531 13.3958 170.393 14.4427 169.981C15.3609 169.628 16.3159 170.02 17.1974 170.314C17.9504 170.569 18.7034 170.805 19.4563 171.06C22.4866 172.061 25.4985 173.042 28.5287 174.042C31.963 175.161 35.3789 176.299 38.8132 177.417C39.1437 177.535 39.2906 176.966 38.9601 176.848C32.6792 174.788 26.4167 172.728 20.1358 170.667C18.6666 170.197 17.1423 169.471 15.618 169.274C14.5529 169.137 13.7081 169.588 12.9551 170.334C11.9083 171.374 11.1186 172.335 9.59427 172.414C8.32707 172.492 7.07825 172.139 5.81105 172.355C3.20321 172.787 2.39514 175.828 0.191332 176.985C-0.13924 177.182 0.136238 177.692 0.448445 177.515Z" fill="#41B3A2"/>
<path d="M33.4505 175.043C34.7544 175.396 35.7829 174.003 36.9582 173.591C38.5376 173.022 40.2272 173.257 41.6597 174.14C41.9719 174.337 42.2474 173.826 41.9352 173.63C40.7231 172.865 39.3457 172.551 37.9499 172.747C37.3439 172.826 36.7746 173.002 36.2236 173.257C35.4339 173.63 34.5157 174.709 33.5974 174.474C33.2485 174.376 33.1016 174.945 33.4505 175.043Z" fill="#41B3A2"/>
<path d="M47.6101 173.571C46.3796 172.492 45.2042 171.335 44.1023 170.098C43.5881 169.529 43.0922 168.921 42.6147 168.313C42.3393 167.96 42.0638 167.607 41.8067 167.253C41.623 166.998 41.4394 166.743 41.2741 166.488C40.9802 166.174 40.9802 165.782 41.2925 165.35C41.5128 165.448 41.8618 165.213 41.6781 164.938C40.5579 163.329 39.7314 161.563 39.1988 159.641C39.0886 159.758 38.9785 159.876 38.8683 159.994C39.4743 160.17 39.9151 160.504 40.2456 161.053C40.4293 161.367 40.9068 161.092 40.7231 160.759C37.9867 155.697 35.7462 150.36 34.0566 144.807C33.9097 144.905 33.7444 145.004 33.5975 145.102C41.2925 153.185 44.7818 164.428 51.2647 173.473C51.4851 173.767 51.9626 173.473 51.7422 173.179C45.241 164.094 41.7149 152.813 33.9831 144.69C33.7995 144.493 33.4322 144.69 33.524 144.984C35.232 150.595 37.4725 155.971 40.2456 161.073C40.4109 160.975 40.5579 160.877 40.7231 160.779C40.3007 160.092 39.7498 159.641 39.0152 159.444C38.8132 159.385 38.6111 159.582 38.6846 159.798C39.2356 161.76 40.0804 163.584 41.219 165.232C41.3476 165.095 41.4761 164.958 41.6047 164.82C41.0904 164.565 40.5211 164.82 40.3926 165.468C40.2273 166.39 41.2741 167.41 41.7516 168.058C43.3861 170.236 45.241 172.217 47.2611 173.983C47.4999 174.219 47.8855 173.807 47.6101 173.571Z" fill="#41B3A2"/>
<path d="M45.6817 161.308C42.3025 155.913 39.5661 150.125 37.546 144.003C37.4909 144.121 37.4174 144.238 37.3623 144.356C37.9867 144.199 38.5193 144.454 38.8683 145.043C39.0519 145.376 39.4927 145.082 39.3458 144.748C36.4992 138.176 33.5975 131.328 33.7995 123.931C33.6342 123.99 33.4506 124.029 33.2853 124.088C38.1888 134.879 42.8535 145.808 47.2611 156.835C47.3897 157.149 47.8672 156.913 47.757 156.599C47.0224 154.245 46.3061 151.871 45.5715 149.516C45.2226 148.359 44.8553 147.221 44.5064 146.063C44.2676 145.298 43.7534 143.63 44.7818 143.218C44.6716 143.179 44.5798 143.12 44.4696 143.081C45.7919 145.847 47.0958 148.614 48.4181 151.38C48.5834 151.714 49.0609 151.42 48.8956 151.086C47.4631 148.084 46.802 144.768 46.9306 141.393C46.7469 141.413 46.5632 141.452 46.398 141.472C50.2179 151.616 54.6439 161.505 59.6208 171.06C59.7861 171.393 60.2636 171.099 60.0983 170.766C55.1398 161.25 50.7321 151.42 46.9306 141.315C46.8204 141.021 46.398 141.04 46.398 141.393C46.2694 144.866 46.9673 148.261 48.4365 151.38C48.6018 151.282 48.7487 151.184 48.914 151.086C47.5917 148.319 46.2878 145.553 44.9655 142.786C44.9104 142.688 44.7635 142.61 44.6533 142.649C42.8168 143.375 43.9921 146.181 44.3962 147.495C45.3511 150.576 46.2878 153.676 47.2428 156.756C47.408 156.678 47.5733 156.599 47.7386 156.521C43.331 145.494 38.6662 134.565 33.7628 123.774C33.6342 123.499 33.2485 123.656 33.2485 123.931C33.0282 131.426 35.9849 138.391 38.8683 145.043C39.0335 144.945 39.1805 144.847 39.3458 144.748C38.8683 143.944 38.0969 143.591 37.2154 143.787C37.0685 143.826 36.9767 144.003 37.0318 144.14C39.0703 150.301 41.825 156.148 45.2226 161.583C45.4062 161.917 45.8837 161.622 45.6817 161.308Z" fill="#41B3A2"/>
<path d="M9.39226 199.235C15.7466 195.959 22.4499 192.623 29.7041 193.408C33.1383 193.781 36.4624 194.84 39.8783 195.311C41.6047 195.547 43.3494 195.645 45.0757 195.429C46.6918 195.213 48.2161 194.585 49.7955 194.212C51.834 193.722 53.6889 194.232 55.654 194.821C57.2701 195.292 58.8679 195.684 60.5391 195.272C60.888 195.193 60.7411 194.624 60.3922 194.703C57.0497 195.547 53.9093 192.976 50.5301 193.486C48.8589 193.742 47.2979 194.448 45.645 194.762C43.9003 195.076 42.1189 195.037 40.3558 194.801C36.8848 194.369 33.5057 193.271 30.0163 192.859C26.582 192.447 23.1845 192.917 19.8971 193.938C16.1506 195.115 12.6062 196.92 9.11679 198.725C8.78621 198.882 9.08006 199.392 9.39226 199.235Z" fill="#41B3A2"/>
<path d="M46.6734 215.501C48.8221 214.52 50.9341 213.441 52.9726 212.224C54.0378 211.577 55.0846 210.91 56.1314 210.203C57.068 209.556 58.0047 208.634 59.0331 208.163C60.1901 207.653 61.9348 208.614 63.0918 208.987C64.3223 209.399 65.5527 209.791 66.7648 210.203C69.2808 211.027 71.7969 211.851 74.2945 212.675C74.6251 212.793 74.772 212.224 74.4414 212.106C71.7601 211.223 69.0605 210.341 66.3792 209.458C65.0936 209.026 63.808 208.614 62.5225 208.182C61.5308 207.849 60.2819 207.162 59.2351 207.437C58.2618 207.692 57.3802 208.594 56.5538 209.183C55.4886 209.929 54.3867 210.654 53.2848 211.341C51.0627 212.695 48.767 213.912 46.3979 214.971C46.0673 215.128 46.3612 215.638 46.6734 215.501Z" fill="#41B3A2"/>
<path d="M69.5196 216.109C70.9153 215.364 72.311 214.598 73.7068 213.853C74.9924 213.146 76.3697 212.205 77.8389 212.067C79.3265 211.91 80.4835 212.95 81.7691 213.559C82.8526 214.069 84.028 214.363 85.2033 214.441C87.9581 214.598 90.5292 213.127 93.2656 213.284C95.4511 213.421 97.6549 215.344 99.8036 214.128C100.116 213.951 99.8403 213.441 99.5281 213.617C98.1875 214.383 96.7366 213.637 95.4144 213.186C94.2757 212.793 93.1738 212.617 91.9801 212.754C89.1518 213.068 86.5624 214.343 83.6607 213.617C81.2549 213.029 79.4183 210.89 76.8289 211.695C75.6351 212.067 74.5149 212.774 73.413 213.362C72.0172 214.108 70.6215 214.873 69.2257 215.619C68.9319 215.776 69.2073 216.286 69.5196 216.109Z" fill="#41B3A2"/>
<path d="M80.2448 211.851C79.1061 210.792 78.0777 209.615 77.2329 208.261C76.8472 207.653 76.4983 207.005 76.1677 206.358C76.0024 206.024 75.8555 205.691 75.727 205.357C75.6168 205.082 75.5066 204.827 75.4147 204.553C75.2495 204.258 75.3229 203.984 75.6351 203.728C75.8004 203.65 75.9657 203.571 76.131 203.493C74.1108 200.314 72.8436 196.704 72.4212 192.898C72.2559 192.976 72.109 193.035 71.9437 193.114C72.2743 193.565 72.6049 194.016 72.9538 194.487C73.1558 194.762 73.5415 194.409 73.3946 194.134C70.1991 188.032 68.4911 181.165 68.4544 174.18C68.2891 174.258 68.1422 174.317 67.9769 174.395C69.2257 175.475 70.1807 176.809 70.7684 178.398C70.9337 178.32 71.0989 178.241 71.2642 178.163C69.8318 174.925 69.5379 171.276 70.3827 167.823C70.1991 167.823 70.0338 167.823 69.8501 167.823C73.615 179.34 77.3615 190.838 81.1263 202.355C81.2365 202.708 81.7691 202.551 81.6589 202.198C79.7673 196.292 78.8307 190.092 78.8858 183.833C78.7205 183.912 78.5735 183.97 78.4083 184.049C79.5285 185.128 80.2264 186.482 80.4835 188.071C80.5386 188.405 81.0345 188.326 81.0161 187.993C80.961 186.796 80.8876 185.579 80.8325 184.382C80.6855 184.461 80.557 184.559 80.4101 184.637C81.3834 185.305 81.5671 187.07 81.8793 188.169C82.2098 189.346 82.5404 190.524 82.8894 191.721C83.5689 194.154 84.2667 196.567 84.9462 199C86.3236 203.846 87.701 208.712 89.0784 213.558C89.1886 213.912 89.7212 213.774 89.611 213.401C88.1234 208.182 86.6542 202.944 85.1666 197.725C84.4504 195.174 83.7158 192.623 82.9995 190.072C82.6322 188.758 82.2649 187.463 81.8976 186.148C81.6589 185.344 81.3834 184.618 80.7039 184.147C80.5386 184.029 80.2815 184.186 80.2815 184.402C80.3366 185.599 80.4101 186.815 80.4652 188.012C80.6488 187.993 80.8325 187.953 80.9977 187.934C80.7406 186.246 79.9693 184.775 78.7756 183.637C78.5919 183.46 78.3164 183.578 78.2981 183.853C78.243 190.151 79.1796 196.41 81.0896 202.375C81.2732 202.316 81.4385 202.277 81.6222 202.218C77.8573 190.7 74.1108 179.203 70.346 167.685C70.2542 167.43 69.8868 167.391 69.8134 167.685C68.9319 171.315 69.2624 175.102 70.75 178.477C70.8786 178.771 71.3744 178.555 71.2459 178.241C70.6214 176.554 69.6481 175.121 68.3074 173.983C68.1238 173.826 67.83 173.925 67.83 174.199C67.8667 181.282 69.593 188.267 72.8436 194.448C72.9906 194.33 73.1375 194.212 73.2844 194.095C72.9538 193.643 72.6233 193.192 72.2743 192.721C72.1274 192.525 71.7785 192.682 71.7968 192.937C72.2192 196.861 73.5048 200.57 75.58 203.827C75.7637 204.101 76.131 203.925 76.0759 203.591C75.9841 203.042 75.378 202.846 74.9556 203.179C74.1843 203.768 74.9373 205.161 75.2127 205.828C76.2595 208.32 77.8206 210.498 79.7489 212.283C80.1346 212.499 80.5202 212.087 80.2448 211.851Z" fill="#41B3A2"/>
<path d="M61.0349 167.842C60.7961 164.153 67.0586 166.272 68.8033 166.626C71.6683 167.195 74.5149 167.764 77.3798 168.333C83.0914 169.471 88.8213 170.609 94.5328 171.747C94.8818 171.825 95.0287 171.256 94.6798 171.178C88.1234 169.863 81.5854 168.568 75.0291 167.253C71.8152 166.606 68.6013 165.959 65.3874 165.331C64.2304 165.095 62.8898 164.84 61.8062 165.488C60.9798 165.959 60.4288 166.822 60.5023 167.842C60.5023 168.215 61.0716 168.215 61.0349 167.842Z" fill="#41B3A2"/>
<path d="M90.7313 171.099C92.6413 171.315 93.8166 169.373 95.3042 168.431C96.5714 167.646 97.6733 168.254 98.9772 168.529C100.428 168.843 101.916 168.882 103.385 168.686C103.734 168.647 103.734 168.058 103.385 168.097C101.732 168.313 100.079 168.235 98.463 167.803C97.4897 167.528 96.6081 167.195 95.6348 167.607C93.9085 168.313 92.7331 170.746 90.7313 170.511C90.3824 170.471 90.3824 171.06 90.7313 171.099Z" fill="#41B3A2"/>
<path d="M125.754 208.83C130.161 207.182 134.606 205.534 139.16 204.356C143.917 203.14 148.71 202.649 153.595 202.806C158.425 202.963 163.218 203.552 168.03 204.023C172.86 204.513 177.69 204.984 182.52 205.475C188.066 206.024 193.631 206.573 199.177 207.142C199.526 207.182 199.526 206.593 199.177 206.554C189.278 205.573 179.38 204.592 169.463 203.591C159.931 202.649 150.344 201.256 140.85 203.356C135.634 204.513 130.602 206.397 125.588 208.261C125.276 208.379 125.423 208.948 125.754 208.83Z" fill="#41B3A2"/>
<path d="M145.166 189.523C148.453 188.777 151.538 187.306 154.642 185.972C157.966 184.559 161.327 183.578 164.89 183.244C168.489 182.911 172.107 183.107 175.688 183.343C179.288 183.578 182.887 183.853 186.505 184.127C190.711 184.461 194.935 184.834 199.141 185.226C199.49 185.265 199.49 184.677 199.141 184.637C191.684 183.931 184.228 183.323 176.754 182.813C169.646 182.322 162.649 182.126 155.872 184.814C152.273 186.246 148.783 188.071 145 188.934C144.688 189.033 144.817 189.602 145.166 189.523Z" fill="#41B3A2"/>
<path d="M187.497 166.9C190.123 164.762 192.896 162.662 195.835 161.053C197.267 160.268 198.81 159.641 200.426 159.503C202.171 159.346 203.915 159.719 205.623 159.955C209.094 160.406 212.584 160.68 216.073 160.916C218.387 161.073 221.326 161.426 222.96 159.268C223.18 158.973 222.795 158.561 222.574 158.856C220.72 161.308 216.808 160.386 214.273 160.21C210.784 159.955 207.331 159.601 203.86 159.13C202.373 158.934 200.904 158.777 199.416 159.072C197.947 159.346 196.569 159.974 195.266 160.72C192.437 162.329 189.756 164.33 187.203 166.41C186.946 166.626 187.222 167.136 187.497 166.9Z" fill="#41B3A2"/>
<path d="M86.3972 163.663C89.005 161.563 91.6312 159.484 94.2391 157.384C96.7367 155.383 99.0691 153.283 102.338 153.107C105.423 152.95 108.582 153.323 111.649 153.597C114.955 153.892 118.242 154.284 121.511 154.775C124.266 155.187 127.553 156.285 130.161 154.755C130.473 154.578 130.198 154.068 129.886 154.245C128.545 155.03 127.058 155.03 125.57 154.834C123.972 154.618 122.374 154.323 120.777 154.088C117.691 153.637 114.588 153.264 111.466 152.989C108.399 152.714 105.221 152.322 102.154 152.518C99.3078 152.695 97.1958 154.265 94.9737 156.05C92.0169 158.404 89.0785 160.779 86.1217 163.133C85.8462 163.388 86.1217 163.898 86.3972 163.663Z" fill="#41B3A2"/>
<path d="M189.719 184.402C189.885 183.107 190.123 181.851 190.472 180.596C190.638 180.007 190.803 179.418 191.023 178.83C191.152 178.477 191.501 177.888 191.978 178.025C192.217 178.104 192.327 178.987 192.345 179.163C192.382 179.477 192.786 179.575 192.878 179.242C193.741 176.24 194.733 172.944 197.378 171.197C197.231 171.119 197.102 171.021 196.955 170.942C196.955 171.433 196.937 171.943 196.937 172.433C196.937 172.708 197.322 172.845 197.451 172.59C199.085 168.961 200.867 165.154 204.173 162.957C204.044 162.839 203.897 162.741 203.769 162.623C202.116 167.195 200.187 171.649 198.002 175.965C197.855 176.24 198.222 176.593 198.443 176.318C199.673 174.749 200.922 173.179 202.538 172.041C202.41 171.904 202.281 171.766 202.152 171.629C200.114 176.22 197.892 180.694 195.449 185.05C195.266 185.383 195.743 185.677 195.927 185.344C198.351 180.988 200.591 176.514 202.63 171.923C202.74 171.688 202.501 171.335 202.244 171.511C200.591 172.688 199.306 174.278 198.039 175.887C198.186 176.004 198.333 176.122 198.479 176.24C200.683 171.884 202.63 167.391 204.301 162.76C204.393 162.525 204.081 162.309 203.897 162.427C200.5 164.683 198.663 168.548 196.973 172.276C197.139 172.335 197.322 172.375 197.488 172.433C197.488 171.943 197.506 171.433 197.506 170.942C197.506 170.726 197.267 170.569 197.084 170.687C194.329 172.512 193.245 175.926 192.345 179.085C192.529 179.104 192.713 179.144 192.878 179.163C192.786 178.163 191.941 176.456 190.913 177.731C190.399 178.378 190.197 179.438 189.976 180.242C189.609 181.537 189.352 182.872 189.168 184.225C189.15 184.618 189.664 184.775 189.719 184.402Z" fill="#41B3A2"/>
<path d="M61.4023 151.282C62.8348 150.458 64.2856 149.634 65.865 149.183C67.5362 148.712 69.1891 148.869 70.8603 149.104C74.1844 149.575 77.5085 150.046 80.8142 150.517C81.1631 150.576 81.1631 149.987 80.8142 149.928C77.2697 149.418 73.7069 148.869 70.1624 148.418C68.5279 148.202 66.9669 148.202 65.3875 148.692C63.8816 149.163 62.4858 149.968 61.1084 150.752C60.7962 150.968 61.0901 151.459 61.4023 151.282Z" fill="#41B3A2"/>
<path d="M173.117 18.1948C174.439 16.9979 176.294 17.2333 177.745 17.9986C178.847 18.5676 179.747 19.7252 181.033 19.784C182.226 19.8233 183.218 18.96 184.228 18.391C184.908 18.0182 185.605 17.7631 186.377 17.9397C187.203 18.1163 187.919 18.6264 188.672 18.9796C191.152 20.1372 192.805 18.5283 194.898 17.253C195.486 16.8998 196.11 16.5859 196.79 16.527C197.653 16.4485 198.424 16.8606 199.196 17.2137C200.408 17.7631 201.326 17.9789 202.556 17.4492C203.824 16.9194 204.852 16.9979 206.119 17.4884C206.927 17.8023 207.699 18.1948 208.543 18.391C209.811 18.7049 211.17 18.6264 212.125 17.5865C212.382 17.3118 211.978 16.8998 211.739 17.1745C210.509 18.5087 208.635 17.8808 207.221 17.2922C205.789 16.7036 204.32 16.0757 202.795 16.684C201.84 17.0764 201.197 17.3511 200.169 16.9783C199.471 16.7232 198.828 16.3112 198.112 16.0953C197.029 15.7422 196.018 15.9384 195.027 16.4681C193.888 17.0764 192.896 18.0378 191.703 18.5479C190.123 19.215 188.893 18.3321 187.46 17.6846C186.414 17.2137 185.422 17.1352 184.375 17.6258C183.108 18.234 181.877 19.5682 180.39 18.9992C179.6 18.7049 178.976 18.0182 178.259 17.5865C177.653 17.2333 176.992 16.9783 176.313 16.8409C175.009 16.5859 173.742 16.8213 172.713 17.7435C172.456 18.0378 172.86 18.4498 173.117 18.1948Z" fill="#41B3A2"/>
<path d="M179.729 31.5956C180.078 31.5956 180.078 31.007 179.729 31.007C179.38 31.007 179.38 31.5956 179.729 31.5956Z" fill="#41B3A2"/>
<path d="M183.402 33.7343C184.265 32.0666 186.303 32.871 187.571 33.4204C188.838 33.9698 189.976 34.3033 191.317 33.8128C192.419 33.4008 193.411 32.616 194.549 32.3413C196.129 31.9489 197.029 33.3812 198.461 33.7147C200.702 34.2445 202.961 31.5761 205.072 32.6944C205.66 33.0084 206.064 33.4204 206.762 33.3615C207.405 33.3223 207.993 32.9888 208.617 32.8318C210.362 32.4001 212.18 32.7337 213.741 33.6559C214.053 33.8324 214.328 33.3223 214.016 33.1457C213.025 32.5571 211.959 32.2039 210.839 32.0862C210.27 32.0273 209.682 32.047 209.113 32.1451C208.433 32.2432 207.809 32.5571 207.148 32.6944C206.248 32.871 205.862 32.4001 205.128 32.0666C204.76 31.9096 204.356 31.8311 203.971 31.8507C203.052 31.89 202.171 32.302 201.326 32.6356C200.242 33.0672 199.085 33.4793 197.984 32.8906C197.047 32.4001 196.312 31.6545 195.21 31.6545C192.933 31.6742 191.335 34.009 188.93 33.3027C187.148 32.7729 184.283 30.909 182.961 33.4204C182.759 33.7736 183.236 34.0679 183.402 33.7343Z" fill="#41B3A2"/>
<path d="M165.588 57.2203C166.892 56.1216 168.379 56.1804 169.812 56.8868C170.601 57.2792 171.446 57.652 172.272 57.1222C172.75 56.8083 173.062 56.3178 173.631 56.1412C174.238 55.945 174.88 56.0823 175.468 56.2393C176.515 56.514 177.525 57.0045 178.608 57.083C179.894 57.1811 181.069 56.5925 182.318 56.4551C183.659 56.3178 184.595 57.1811 185.844 57.3773C187.056 57.5539 187.993 56.514 189.205 56.7102C190.674 56.9457 192.125 57.4754 193.576 57.8678C193.925 57.9659 194.072 57.3969 193.723 57.2988C192.199 56.8868 190.619 56.2589 189.058 56.0823C187.736 55.9254 186.781 57.083 185.459 56.6513C184.228 56.2589 183.347 55.6899 182.024 55.8861C180.61 56.102 179.325 56.6906 177.874 56.357C176.754 56.102 175.67 55.533 174.513 55.4545C174.091 55.4349 173.65 55.4741 173.246 55.6507C172.732 55.8665 172.456 56.3178 171.979 56.6121C170.877 57.2988 169.389 55.8469 168.214 55.7488C167.094 55.6507 166.065 56.0627 165.184 56.7887C164.908 57.0438 165.312 57.4558 165.588 57.2203Z" fill="#41B3A2"/>
<path d="M60.3003 14.408C60.6492 14.408 60.6492 13.8193 60.3003 13.8193C59.9513 13.8193 59.9513 14.408 60.3003 14.408Z" fill="#41B3A2"/>
<path d="M61.9164 14.8592C62.247 13.113 64.414 14.2313 65.2037 14.7611C66.1036 15.3693 67.0586 15.9187 68.1605 15.5852C69.3543 15.2124 70.1623 14.1136 71.4846 14.0351C72.7334 13.9763 73.9455 14.5845 75.1209 14.9769C76.131 15.3105 77.1962 15.5459 78.243 15.2712C79.4734 14.9573 80.5203 14.0351 81.7691 13.7997C84.23 13.3484 86.4522 15.4871 88.9498 14.663C89.2804 14.5453 89.1519 13.9763 88.8029 14.094C86.1951 14.9769 83.7158 12.5047 81.0712 13.3876C79.7122 13.8389 78.5735 14.8592 77.086 14.8003C75.7086 14.7415 74.4598 14.0351 73.1558 13.682C72.1274 13.4073 71.0806 13.3288 70.0889 13.8193C69.5195 14.094 69.0237 14.5453 68.4544 14.8396C67.5178 15.3105 66.7281 15.0358 65.8833 14.5256C64.965 13.9566 64.1753 13.2895 63.055 13.3876C62.2653 13.4465 61.5674 13.8782 61.4205 14.7415C61.3287 15.075 61.8613 15.232 61.9164 14.8592Z" fill="#41B3A2"/>
<path d="M63.5877 129.425C65.7732 128.444 67.977 130.19 70.1808 130.308C71.3194 130.366 72.4213 130.072 73.5416 129.837C74.9557 129.542 76.1678 129.523 77.5268 130.131C78.3533 130.504 79.1062 130.739 79.951 130.386C80.4285 130.19 80.8325 129.856 81.31 129.68C81.8426 129.483 82.3936 129.444 82.9629 129.444C84.928 129.483 86.893 130.209 88.7663 129.268C89.0785 129.111 88.803 128.601 88.4908 128.758C86.489 129.758 84.2668 128.659 82.1548 128.895C81.1447 129.013 80.4836 129.64 79.547 129.935C78.4267 130.288 77.3248 129.268 76.2229 129.091C73.8538 128.699 71.6133 130.111 69.2258 129.601C67.3158 129.189 65.3875 127.992 63.4408 128.875C63.1286 129.013 63.2755 129.582 63.5877 129.425Z" fill="#41B3A2"/>
<path d="M23.8823 100.523C25.4848 100.523 26.784 99.1354 26.784 97.4233C26.784 95.7112 25.4848 94.3232 23.8823 94.3232C22.2797 94.3232 20.9806 95.7112 20.9806 97.4233C20.9806 99.1354 22.2797 100.523 23.8823 100.523Z" fill="#0D7C66"/>
<path d="M192.786 79.2152C193.912 79.2152 194.825 78.2401 194.825 77.0373C194.825 75.8345 193.912 74.8594 192.786 74.8594C191.66 74.8594 190.748 75.8345 190.748 77.0373C190.748 78.2401 191.66 79.2152 192.786 79.2152Z" fill="#0D7C66"/>
<path d="M174.44 3.34182C175.271 3.34182 175.945 2.62149 175.945 1.73292C175.945 0.844352 175.271 0.124023 174.44 0.124023C173.608 0.124023 172.934 0.844352 172.934 1.73292C172.934 2.62149 173.608 3.34182 174.44 3.34182Z" fill="#0D7C66"/>
<path d="M108.105 142.865C109.139 142.865 109.978 141.969 109.978 140.864C109.978 139.758 109.139 138.862 108.105 138.862C107.07 138.862 106.231 139.758 106.231 140.864C106.231 141.969 107.07 142.865 108.105 142.865Z" fill="#0D7C66"/>
<path d="M21.752 29.202C22.9387 29.202 23.9007 28.1742 23.9007 26.9063C23.9007 25.6385 22.9387 24.6107 21.752 24.6107C20.5653 24.6107 19.6033 25.6385 19.6033 26.9063C19.6033 28.1742 20.5653 29.202 21.752 29.202Z" fill="#0D7C66"/>
<path d="M95.8368 109.745C96.5164 109.745 97.0673 109.157 97.0673 108.431C97.0673 107.705 96.5164 107.116 95.8368 107.116C95.1572 107.116 94.6063 107.705 94.6063 108.431C94.6063 109.157 95.1572 109.745 95.8368 109.745Z" fill="#0D7C66"/>
<path d="M211.978 120.929C213.012 120.929 213.851 120.033 213.851 118.928C213.851 117.822 213.012 116.926 211.978 116.926C210.943 116.926 210.105 117.822 210.105 118.928C210.105 120.033 210.943 120.929 211.978 120.929Z" fill="#0D7C66"/>
<path d="M7.79443 154.009C8.56528 154.009 9.19018 153.342 9.19018 152.518C9.19018 151.695 8.56528 151.027 7.79443 151.027C7.02358 151.027 6.39868 151.695 6.39868 152.518C6.39868 153.342 7.02358 154.009 7.79443 154.009Z" fill="#0D7C66"/>
<path d="M64.8732 38.1295C63.2754 41.6023 61.6593 45.0752 60.0615 48.5481C66.673 58.0249 73.2844 67.4821 79.8958 76.9589C81.6038 74.1924 83.2934 71.367 85.0013 68.522C89.0233 61.7724 92.8616 55.1014 96.5346 48.4892C95.2858 45.0948 94.0186 41.6808 92.7698 38.2864C91.9617 37.8351 91.1536 37.4035 90.3456 36.9522C82.522 36.9718 74.6985 36.9915 66.8933 37.0111C66.1955 37.4035 65.5343 37.7763 64.8732 38.1295Z" fill="white"/>
<path d="M60.2819 48.705C61.6776 45.4283 63.1101 42.1713 64.5793 38.9339C64.7262 38.6003 64.2671 38.2864 64.1018 38.6395C62.6326 41.877 61.2001 45.134 59.8044 48.4107C59.6574 48.7442 60.1349 49.0582 60.2819 48.705Z" fill="#093C34"/>
<path d="M59.9145 49.0582C66.3791 58.535 72.9721 67.8941 79.6938 77.1747C79.9141 77.469 80.2998 77.057 80.0794 76.7627C73.3945 67.5213 66.8382 58.2015 60.392 48.7639C60.19 48.4696 59.7125 48.7639 59.9145 49.0582Z" fill="#093C34"/>
<path d="M64.7078 38.6004C65.4792 38.1687 66.2321 37.7174 67.0035 37.2858C67.3157 37.1092 67.0402 36.599 66.728 36.7756C65.9566 37.2073 65.2037 37.6586 64.4323 38.0902C64.1018 38.2864 64.3956 38.7769 64.7078 38.6004Z" fill="#093C34"/>
<path d="M67.4626 37.325C73.1925 37.325 78.9408 37.325 84.6707 37.325C85.0197 37.325 85.0197 36.7364 84.6707 36.7364C78.9408 36.7364 73.1925 36.7364 67.4626 36.7364C67.1137 36.7364 67.1137 37.325 67.4626 37.325Z" fill="#093C34"/>
<path d="M96.7918 48.4303C95.6347 45.1536 94.441 41.9162 93.2105 38.6592C93.082 38.306 92.5494 38.463 92.6779 38.8161C93.9084 42.0535 95.1022 45.3106 96.2592 48.5872C96.3877 48.9404 96.9203 48.7834 96.7918 48.4303Z" fill="#093C34"/>
<path d="M96.1856 48.7247C90.8047 58.1426 85.3135 67.5017 79.7121 76.7823C79.5101 77.0962 79.9876 77.3906 80.1896 77.0766C85.791 67.796 91.2822 58.4565 96.6631 49.019C96.8468 48.705 96.3693 48.3911 96.1856 48.7247Z" fill="#093C34"/>
<path d="M92.88 38.051C92.2372 37.6194 91.5944 37.1681 90.9516 36.7364C90.6578 36.5402 90.3823 37.0307 90.6762 37.2466C91.3189 37.6782 91.9617 38.1295 92.6045 38.5612C92.9167 38.777 93.1922 38.2668 92.88 38.051Z" fill="#093C34"/>
<path d="M90.3272 36.6776C85.5339 36.6776 80.7406 36.6776 75.9657 36.6776C75.6167 36.6776 75.6167 37.2662 75.9657 37.2662C80.759 37.2662 85.5523 37.2662 90.3272 37.2662C90.6761 37.2662 90.6761 36.6776 90.3272 36.6776Z" fill="#093C34"/>
<path d="M60.5023 48.9993C63.7896 47.4885 67.077 45.9777 70.3644 44.4669C70.6949 44.31 70.4011 43.8194 70.0889 43.9568C66.8015 45.4676 63.5142 46.9784 60.2268 48.4892C59.9146 48.6461 60.1901 49.1563 60.5023 48.9993Z" fill="#093C34"/>
<path d="M64.7998 38.4237C66.8199 38.7573 68.8033 39.2282 70.7684 39.8168C71.1174 39.9149 71.2643 39.3459 70.9153 39.2478C68.9503 38.6396 66.9668 38.1883 64.9467 37.8547C64.5977 37.7959 64.4325 38.3649 64.7998 38.4237Z" fill="#093C34"/>
<path d="M70.6214 39.7188C71.0621 41.1903 71.4478 42.6619 71.7784 44.1727C71.8518 44.5455 72.3844 44.3885 72.311 44.0157C71.9804 42.5049 71.5947 41.0334 71.154 39.5618C71.0438 39.2086 70.5112 39.346 70.6214 39.7188Z" fill="#093C34"/>
<path d="M71.4663 39.7776C76.3881 39.7776 81.2916 39.7776 86.2135 39.7776C86.5624 39.7776 86.5624 39.189 86.2135 39.189C81.2916 39.189 76.3881 39.189 71.4663 39.189C71.1174 39.189 71.1174 39.7776 71.4663 39.7776Z" fill="#093C34"/>
<path d="M85.9746 39.8953C85.791 40.9745 85.6073 42.0733 85.4237 43.1524C85.3686 43.5252 85.9012 43.6822 85.9563 43.3094C86.1399 42.2302 86.3236 41.1315 86.5072 40.0523C86.5623 39.6795 86.0297 39.5226 85.9746 39.8953Z" fill="#093C34"/>
<path d="M72.0722 44.2119C76.3697 44.2119 80.6671 44.2119 84.9829 44.2119C85.3319 44.2119 85.3319 43.6232 84.9829 43.6232C80.6855 43.6232 76.3881 43.6232 72.0722 43.6232C71.7233 43.6232 71.7233 44.2119 72.0722 44.2119Z" fill="#093C34"/>
<path d="M86.746 39.7776C88.7478 39.3263 90.7312 38.875 92.733 38.4238C93.0819 38.3453 92.935 37.7763 92.5861 37.8548C90.5843 38.306 88.6009 38.7573 86.5991 39.2086C86.2501 39.2871 86.397 39.8561 86.746 39.7776Z" fill="#093C34"/>
<path d="M85.8278 44.0353C87.6827 44.3492 89.409 45.4676 91.0986 46.3113C92.8984 47.2139 94.6798 48.1164 96.4796 49.019C96.7918 49.1759 97.0856 48.6658 96.7551 48.5088C94.8451 47.5474 92.9535 46.6056 91.0435 45.6442C89.4274 44.8201 87.7562 43.7802 85.9747 43.4663C85.6258 43.4074 85.4789 43.9764 85.8278 44.0353Z" fill="#093C34"/>
<path d="M72.2375 45.1144C74.625 55.6312 76.9941 66.1675 79.3816 76.6842C79.4734 77.057 79.9876 76.9001 79.9141 76.5273C77.5267 66.0105 75.1576 55.4742 72.7701 44.9575C72.6783 44.5847 72.1457 44.7417 72.2375 45.1144Z" fill="#093C34"/>
<path d="M85.0564 45.8208C82.8159 55.9451 80.961 66.1871 79.5285 76.488C79.4734 76.8608 80.006 77.0178 80.0611 76.645C81.4936 66.3441 83.3485 56.1217 85.589 45.9777C85.6809 45.6049 85.1483 45.448 85.0564 45.8208Z" fill="#093C34"/>
<path d="M85.2401 26.1805C86.0665 23.9241 86.5256 21.55 86.5991 19.117C86.6175 18.7442 86.0665 18.7442 86.0481 19.117C85.9747 21.4911 85.5155 23.8064 84.7075 26.0235C84.5789 26.3767 85.1115 26.514 85.2401 26.1805Z" fill="#093C34"/>
<path d="M89.0049 26.5729C90.7679 24.4342 92.7513 22.5506 94.9735 20.9613C95.2674 20.7455 94.9919 20.2354 94.6981 20.4512C92.4391 22.0601 90.4006 23.9829 88.6192 26.1608C88.3804 26.4355 88.7661 26.8476 89.0049 26.5729Z" fill="#093C34"/>
<path d="M92.6228 30.2027C94.9001 29.4767 97.2508 29.202 99.6199 29.3982C99.9689 29.4178 99.9689 28.8292 99.6199 28.8096C97.1957 28.6134 94.8083 28.8881 92.4759 29.6337C92.1453 29.7514 92.2739 30.3204 92.6228 30.2027Z" fill="#093C34"/>
<path d="M53.9276 16.4485C54.1479 20.3334 52.1094 24.0418 48.8404 25.7291C48.6568 25.8273 48.6751 26.1216 48.8404 26.2393C51.8339 28.1621 53.2113 31.6939 54.001 35.1667C54.0928 35.5395 54.6071 35.3825 54.5336 35.0098C53.7072 31.3799 52.238 27.7108 49.1159 25.7291C49.1159 25.9057 49.1159 26.0627 49.1159 26.2393C52.5502 24.4538 54.7173 20.51 54.4785 16.4485C54.4601 16.0757 53.9092 16.0757 53.9276 16.4485Z" fill="#41B3A2"/>
<path d="M54.1296 16.4485C53.8908 20.5297 56.0579 24.4734 59.4922 26.2393C59.4922 26.0627 59.4922 25.9057 59.4922 25.7291C56.3518 27.7305 54.8826 31.3995 54.0561 35.049C53.9643 35.4218 54.4969 35.5787 54.5887 35.206C55.3784 31.7135 56.7558 28.1621 59.7677 26.2393C59.933 26.1412 59.9513 25.8272 59.7677 25.7291C56.4987 24.0418 54.4418 20.3334 54.6622 16.4485C54.6989 16.0757 54.148 16.0757 54.1296 16.4485Z" fill="#41B3A2"/>
<path d="M143.549 163.741C144.192 163.447 145.074 163.015 146.084 162.407C147.773 161.407 148.618 160.896 149.132 160.092C149.793 159.032 149.536 158.463 150.399 157.404C150.528 157.227 151.134 156.541 151.924 156.168C153.283 155.56 154.55 156.286 156.662 157.09C158.609 157.836 160.133 158.189 163.182 158.915C164.394 159.209 165.863 159.503 167.993 160.21C168.599 160.406 169.077 160.582 169.407 160.7C169.444 161.112 169.462 162.172 168.82 163.133C168.526 163.565 168.122 163.918 167.479 164.232C165.991 164.978 164.577 164.84 163.384 164.781C160.813 164.664 161.878 165.056 155.817 165.174C154.495 165.193 153.411 165.193 152.658 165.193C151.722 165.88 150.785 166.586 149.83 167.312C148.214 168.568 146.671 169.824 145.202 171.06C144.651 168.627 144.1 166.174 143.549 163.741Z" fill="#093C34"/>
<path d="M135.891 138.627C134.569 139.372 134.422 139.647 129.5 144.121C121.823 151.086 120.979 151.459 114.018 157.953C107.352 164.153 106.103 165.703 104.836 167.744C101.677 172.904 100.979 177.221 100.777 179.32C100.502 182.146 100.134 186.07 102.467 189.17C103.936 191.112 105.846 191.917 106.489 192.172C108.417 192.957 109.996 192.859 112.843 192.643C116.626 192.348 119.509 191.564 120.648 191.23C121.897 190.857 124.799 189.935 128.435 188.012C131.851 186.207 133.32 184.873 137.985 181.518C140.06 180.027 143.127 177.849 146.984 175.337C147.222 173.375 147.02 171.845 146.818 170.883C146.341 168.607 145.368 167.038 144.284 165.311C143.402 163.898 142.558 162.819 141.97 162.113C143.347 160.994 145.147 159.386 147.039 157.227C148.306 155.775 150.308 153.46 151.979 150.203C154.036 146.2 156.093 142.159 154.77 139.372C152.695 134.997 142.815 134.801 135.891 138.627Z" fill="white"/>
<path opacity="0.18" d="M152.346 140.766C151.299 143.355 149.573 147.025 146.818 150.949C142.815 156.619 138.774 159.758 132.677 164.408C115.432 177.554 110.804 180.556 111.319 181.812C112.016 183.519 121.732 180.458 123.146 180.007C133.467 176.75 141.07 171.727 145.827 168.058C144.615 166.076 143.402 164.095 142.19 162.132C143.678 160.994 145.735 159.189 147.663 156.501C148.728 155.03 150.344 152.754 151.391 149.32C152.456 145.906 152.493 142.865 152.346 140.766Z" fill="#81B0B3"/>
<path d="M135.818 138.607C129.28 143.807 122.907 149.261 116.773 154.971C113.835 157.698 110.896 160.425 108.141 163.349C105.699 165.939 103.422 168.804 102.044 172.218C100.612 175.749 100.208 179.83 100.557 183.656C100.85 186.815 101.934 189.994 104.634 191.642C107.462 193.349 111.025 193.172 114.147 192.819C117.985 192.407 121.768 191.407 125.35 189.857C133.338 186.384 139.601 179.889 147.149 175.592C147.461 175.416 147.186 174.906 146.873 175.082C140.574 178.673 135.212 183.853 128.894 187.443C125.588 189.327 122.025 190.7 118.352 191.544C114.955 192.309 111.135 192.898 107.682 192.191C106.066 191.858 104.505 191.152 103.348 189.857C102.228 188.581 101.622 186.913 101.31 185.206C100.63 181.498 100.942 177.299 102.081 173.728C103.22 170.157 105.442 167.155 107.866 164.487C110.382 161.72 113.137 159.17 115.836 156.639C122.356 150.517 129.114 144.67 136.093 139.137C136.369 138.902 136.111 138.391 135.818 138.607Z" fill="#093C34"/>
<path d="M117.82 178.83C123.844 176.338 129.298 172.61 134.477 168.529C137.03 166.528 139.546 164.448 142.043 162.368C144.504 160.308 146.855 158.13 148.765 155.481C148.985 155.187 148.508 154.893 148.288 155.187C146.341 157.895 143.898 160.072 141.401 162.172C138.94 164.232 136.46 166.273 133.926 168.254C128.857 172.218 123.55 175.867 117.673 178.28C117.342 178.398 117.489 178.967 117.82 178.83Z" fill="#093C34"/>
<path d="M141.768 162.309C145.312 165.488 147.186 170.413 146.69 175.337C146.653 175.71 147.204 175.71 147.241 175.337C147.737 170.275 145.79 165.174 142.154 161.897C141.896 161.642 141.511 162.054 141.768 162.309Z" fill="#093C34"/>
<path d="M146.653 169.863C147.7 169.529 148.618 168.588 149.5 167.921C150.602 167.097 151.685 166.272 152.787 165.448C153.081 165.233 152.805 164.722 152.512 164.938C151.52 165.684 150.51 166.449 149.518 167.195C148.6 167.881 147.59 168.941 146.506 169.294C146.157 169.392 146.304 169.961 146.653 169.863Z" fill="#093C34"/>
<path d="M143.623 164.016C145.698 163.094 147.608 161.838 149.334 160.288C149.61 160.033 149.206 159.621 148.949 159.876C147.314 161.367 145.478 162.564 143.494 163.447C143.164 163.604 143.311 164.173 143.623 164.016Z" fill="#093C34"/>
<path d="M149.132 160.033C149.481 160.033 149.481 159.444 149.132 159.444C148.783 159.444 148.783 160.033 149.132 160.033Z" fill="#093C34"/>
<path d="M149.794 159.327C150.106 158.542 150.436 157.679 151.024 157.07C151.814 156.246 152.769 156.364 153.779 156.599C155.652 157.051 157.489 157.679 159.325 158.248C161.033 158.758 162.741 159.209 164.504 159.425C165.532 159.543 166.396 159.68 167.314 160.17C167.993 160.524 168.581 160.877 169.334 160.955C169.683 160.994 169.683 160.406 169.334 160.367C168.324 160.269 167.534 159.523 166.579 159.189C165.624 158.856 164.559 158.875 163.567 158.699C161.4 158.326 159.288 157.62 157.195 156.953C156.166 156.639 155.138 156.325 154.091 156.07C153.32 155.893 152.512 155.677 151.74 155.932C150.4 156.364 149.757 157.894 149.261 159.17C149.132 159.523 149.665 159.68 149.794 159.327Z" fill="#093C34"/>
<path d="M152.714 165.88C156.644 165.252 160.537 165.154 164.504 165.076C165.881 165.056 167.351 164.879 168.452 163.918C169.389 163.094 169.922 161.897 169.665 160.622C169.591 160.249 169.058 160.406 169.132 160.779C169.481 162.564 167.975 163.879 166.487 164.271C164.963 164.664 163.31 164.467 161.749 164.507C158.664 164.566 155.615 164.84 152.567 165.331C152.218 165.37 152.383 165.939 152.714 165.88Z" fill="#093C34"/>
<path d="M166.653 161.975C168.012 160.936 169.389 159.896 170.748 158.856C170.84 158.189 171.134 156.737 172.254 155.501C172.585 155.128 173.356 154.264 174.513 154.029C175.725 153.774 176.662 154.363 177.709 154.873C179.398 155.697 181.033 156.011 184.265 156.678C186.818 157.188 188.103 157.443 189.94 157.345C192.437 157.188 194.219 156.482 195.284 157.6C195.394 157.718 195.853 158.247 195.816 158.895C195.761 159.719 194.935 160.249 194.274 160.661C191.391 162.427 189.774 162.937 189.774 162.937C185.697 164.212 183.64 164.86 181.877 165.017C180.445 165.134 178.406 165.193 175.945 164.781C175.229 167.41 173.062 169.098 171.024 168.96C168.397 168.784 165.973 165.625 166.653 161.975Z" fill="#093C34"/>
<path d="M140.28 144.631C140.684 143.316 141.437 141.648 142.851 141.099C143.77 140.746 144.614 140.981 144.89 141.06C146.598 141.511 150.106 140.864 157.103 139.588C160.574 138.96 164.963 138.038 170.013 136.665C170.032 137.665 170.013 138.98 169.958 140.51C169.83 143.944 169.499 146.534 169.426 147.142C169.114 149.575 168.563 153.617 166.891 158.522C166.469 159.778 166.047 160.818 165.753 161.524C166.469 161.877 167.24 162.348 167.993 163.015C171.097 165.664 171.997 169.412 172.291 171.001C171.85 171.57 171.189 172.414 170.344 173.375C166.928 177.26 163.769 179.438 157.746 183.421C154.036 185.873 151.318 187.659 146.965 190.406C141.676 193.741 137.397 196.331 132.071 197.96C130.749 198.372 128.655 198.921 126.011 198.627C124.725 198.49 122.411 198.235 120.189 196.508C117.342 194.31 116.442 191.093 116.075 189.68C115.249 186.521 115.561 183.558 116.332 180.478C116.865 178.32 118.793 171.158 125.496 163.094C126.837 161.485 130.657 157.855 138.26 150.595C140.097 148.849 141.603 147.417 142.613 146.475C141.841 145.847 141.07 145.239 140.28 144.631Z" fill="white"/>
<path opacity="0.18" d="M165.257 139.196C164.835 140.922 164.155 143.414 163.127 146.338C153.742 172.904 132.769 184.382 134.477 187.247C135.726 189.366 147.7 184.088 156.332 178.535C162.796 174.376 167.608 169.922 170.822 166.567C170.307 165.762 169.518 164.663 168.324 163.624C167.167 162.623 166.065 162.015 165.239 161.642C165.808 160.759 166.561 159.425 167.204 157.718C167.626 156.619 167.993 155.442 168.471 153.048C169.242 149.261 169.554 146.259 169.646 145.317C169.867 143.061 170.069 140.138 170.032 136.684C168.434 137.508 166.855 138.352 165.257 139.196Z" fill="#81B0B3"/>
<path d="M169.756 136.665C169.775 140.373 169.554 144.081 169.077 147.77C168.636 151.086 168.085 154.5 166.946 157.639C165.716 161.034 163.604 163.506 161.051 165.841C158.443 168.215 155.817 170.55 153.191 172.885C150.179 175.573 147.149 178.241 144.137 180.929C143.862 181.165 144.247 181.577 144.523 181.341C150.051 176.436 155.578 171.55 161.07 166.586C163.494 164.389 165.698 162.113 167.02 158.954C168.305 155.893 168.93 152.538 169.426 149.242C170.05 145.082 170.344 140.883 170.307 136.665C170.307 136.272 169.756 136.272 169.756 136.665Z" fill="#093C34"/>
<path d="M140.593 145.18C141.346 145.612 142.099 146.043 142.87 146.475C143.182 146.652 143.458 146.142 143.145 145.965C142.392 145.533 141.639 145.102 140.868 144.67C140.556 144.493 140.28 145.003 140.593 145.18Z" fill="#093C34"/>
<path d="M142.87 146.24C136.332 151.93 129.463 157.561 124.009 164.467C119.307 170.412 115.432 177.947 115.451 185.932C115.451 189.445 116.351 193.114 118.775 195.605C121.199 198.117 124.707 199.098 128.012 198.921C132.053 198.706 135.891 196.999 139.491 195.115C143.347 193.094 147.002 190.7 150.675 188.326C158.241 183.421 166.689 178.849 172.364 171.374C172.585 171.08 172.199 170.668 171.979 170.962C167.222 177.24 160.537 181.263 154.164 185.383C150.657 187.659 147.186 189.974 143.604 192.133C140.097 194.252 136.442 196.273 132.567 197.469C128.931 198.588 124.872 198.823 121.438 196.881C118.132 195.036 116.442 191.465 116.094 187.581C115.414 179.732 119.105 171.923 123.568 165.959C129.133 158.522 136.405 152.597 143.274 146.632C143.531 146.416 143.145 146.004 142.87 146.24Z" fill="#093C34"/>
<path d="M165.624 161.76C169.077 163.525 171.483 167.018 172.052 171.06C172.107 171.433 172.64 171.276 172.585 170.903C172.015 166.724 169.481 163.055 165.918 161.249C165.587 161.093 165.312 161.603 165.624 161.76Z" fill="#093C34"/>
<path d="M166.726 162.27C167.461 161.956 168.048 161.426 168.673 160.916C169.407 160.308 170.16 159.719 170.895 159.111C171.171 158.875 170.895 158.365 170.62 158.601C169.958 159.13 169.297 159.66 168.636 160.21C167.993 160.739 167.351 161.387 166.579 161.701C166.267 161.838 166.396 162.407 166.726 162.27Z" fill="#093C34"/>
<path d="M171.17 158.875C171.538 157.718 171.979 156.58 172.566 155.52C173.374 154.068 174.586 154.225 175.945 154.598C178.057 155.167 180.078 156.03 182.208 156.54C186.34 157.521 190.582 157.855 194.806 157.561C195.155 157.541 195.155 156.952 194.806 156.972C189.829 157.325 184.816 156.776 180.004 155.324C178.847 154.971 177.727 154.52 176.57 154.166C175.688 153.892 174.641 153.578 173.723 153.774C172.897 153.951 172.419 154.618 172.015 155.363C171.446 156.423 171.005 157.561 170.638 158.718C170.528 159.072 171.06 159.228 171.17 158.875Z" fill="#093C34"/>
<path d="M171.96 168.352C173.338 167.234 174.697 166.115 176.074 164.997C176.349 164.762 176.074 164.251 175.798 164.487C174.421 165.605 173.062 166.724 171.685 167.842C171.409 168.077 171.685 168.588 171.96 168.352Z" fill="#093C34"/>
<path d="M176.056 164.86C180.537 165.9 185.11 165.115 189.352 163.388C191.28 162.603 193.484 161.72 195.137 160.386C196.294 159.464 196.459 157.698 194.935 157.07C194.604 156.933 194.457 157.502 194.788 157.639C195.614 157.973 195.706 158.934 195.137 159.601C194.861 159.935 194.476 160.151 194.109 160.386C193.356 160.837 192.584 161.25 191.813 161.642C190.178 162.466 188.489 163.172 186.744 163.722C183.31 164.781 179.71 165.134 176.184 164.31C175.854 164.212 175.707 164.781 176.056 164.86Z" fill="#093C34"/>
<path d="M128.196 80.1179C130.988 77.6457 135.156 74.6634 140.721 72.8975C143.329 72.0734 146.598 71.0531 150.932 71.4456C157.58 72.0538 162.153 75.5463 163.769 76.8216C166.304 78.8033 168.03 80.9028 169.095 82.3743C169.297 96.1284 169.573 109.902 169.922 123.656C170.032 127.894 170.142 132.152 170.271 136.39C167.663 138.117 164.008 140.059 159.38 141.197C148.545 143.846 139.527 140.314 135.873 138.607C135.854 135.134 135.652 129.915 134.661 123.656C133.044 113.375 130.528 109.235 128.949 100.386C128.159 95.8145 127.406 88.9473 128.196 80.1179Z" fill="#0D7C66"/>
<path d="M161.4 83.5122C160.5 84.5717 160.335 85.7686 160.39 90.3598C160.427 95.1865 160.666 98.4828 160.813 102.309C160.923 105.075 161.015 107.273 160.959 110.138C160.904 113.748 160.684 116.71 160.482 118.692C158.682 120.85 157.084 122.538 155.891 123.754C153.209 126.482 150.289 129.425 145.974 132.191C144.266 133.27 142.796 134.055 141.805 134.546C140.905 134.389 139.895 134.153 138.793 133.859C136.185 133.153 135.101 132.525 133.136 132.525C132.549 132.525 130.694 132.525 130.51 133.231C130.345 133.82 131.373 134.742 132.181 135.193C132.934 135.605 133.265 135.487 134.018 135.86C134.863 136.292 135.414 136.92 135.744 137.391C135.395 137.92 134.863 138.725 134.275 139.765C133.595 140.981 133.449 141.452 132.659 142.904C131.832 144.435 131.41 145.2 131.043 145.592C130.473 146.161 130.124 146.279 127.572 147.495C125.037 148.712 124.597 148.987 124.597 149.32C124.597 149.654 125.092 149.732 127.057 150.635C128.655 151.361 128.802 151.518 129.629 151.773C130.657 152.087 131.281 152.283 132.034 152.106C133.228 151.851 133.999 150.89 134.33 150.38C134.495 150.537 134.899 150.87 135.432 150.89C135.854 150.89 136.203 150.713 136.479 150.478C137.636 149.595 138.205 147.966 139.344 146.142C139.546 145.828 140.262 144.67 141.419 143.375C142.135 142.551 142.796 141.943 143.274 141.531C143.917 141.374 144.872 141.138 146.01 140.785C150.436 139.431 153.632 137.803 156.313 136.429C157.874 135.625 159.637 134.565 163.145 132.466C166.194 130.641 167.773 129.621 169.169 127.62C169.316 127.404 170.069 126.325 170.73 124.735C170.932 124.245 171.648 122.499 172.034 119.438C172.217 118.084 172.217 117.338 172.236 113.1C172.272 107.705 172.272 108.352 172.272 107.803C172.254 99.8955 171.868 100.602 171.74 93.3422C171.721 92.6554 171.703 90.7915 171.17 88.437C170.601 85.8863 169.885 84.7483 169.481 84.1793C168.967 83.4533 168.342 82.59 167.277 82.0995C165.33 81.1773 162.741 81.9229 161.4 83.5122Z" fill="white"/>
<path opacity="0.25" d="M167.295 82.0799C167.736 83.6299 168.269 85.8667 168.636 88.5744C169.077 91.851 169.242 95.4612 168.25 104.899C167.424 112.786 167.02 116.73 165.955 120.419C164.43 125.677 163.328 129.503 159.968 132.525C157.801 134.467 155.431 135.37 150.675 137.155C147.186 138.47 144.192 139.255 142.135 139.745C140.666 141.864 138.48 144.552 135.377 147.103C132.953 149.104 130.62 150.478 128.692 151.42C128.967 151.616 130.106 152.401 131.649 152.185C133.448 151.93 134.422 150.556 134.587 150.301C134.936 150.576 135.45 150.87 136.02 150.772C137.195 150.576 137.819 148.79 138.132 147.986C138.811 146.318 140.17 144.023 143.219 141.511C145.239 140.942 147.975 140.079 151.152 138.784C155.578 136.959 158.554 135.193 161.749 133.29C166.873 130.229 168.03 128.973 168.875 127.757C170.417 125.54 171.06 123.264 171.336 122.263C171.832 120.478 171.923 118.476 172.107 114.572C172.236 111.668 172.236 109.431 172.236 107.744C172.236 104.84 172.18 102.682 172.125 100.818C172.052 98.11 171.905 94.9315 171.538 91.1251C171.262 88.3585 171.06 87.2598 170.473 86.0237C169.573 84.0616 168.232 82.8059 167.295 82.0799Z" fill="#81B0B3"/>
<path d="M161.125 83.4336C160.17 85.9843 160.06 88.7312 160.115 91.4585C160.17 94.4605 160.317 97.4428 160.445 100.445C160.702 106.527 160.886 112.629 160.206 118.692C160.17 119.065 160.721 119.065 160.757 118.692C161.419 112.767 161.272 106.782 161.015 100.837C160.886 97.8941 160.739 94.951 160.666 91.9883C160.592 89.1433 160.647 86.2786 161.657 83.5906C161.786 83.2374 161.253 83.0805 161.125 83.4336Z" fill="#093C34"/>
<path d="M161.272 118.182C159.582 119.183 158.223 120.635 156.919 122.145C155.505 123.774 154.091 125.363 152.511 126.815C149.279 129.817 145.643 132.289 141.749 134.212C141.419 134.369 141.713 134.879 142.025 134.722C145.771 132.878 149.279 130.523 152.42 127.678C153.981 126.285 155.413 124.755 156.791 123.166C158.223 121.498 159.655 119.811 161.529 118.712C161.859 118.496 161.584 117.986 161.272 118.182Z" fill="#093C34"/>
<path d="M141.878 134.251C139.858 133.8 137.819 133.329 135.799 132.839C134.789 132.603 133.761 132.309 132.732 132.113C132.09 131.995 131.41 131.936 130.841 132.328C129.959 132.937 129.959 134.055 130.749 134.722C131.318 135.213 132.053 135.429 132.732 135.664C133.834 136.037 134.771 136.508 135.487 137.508C135.707 137.803 136.185 137.508 135.965 137.214C135.322 136.331 134.55 135.703 133.559 135.33C132.879 135.075 132.126 134.918 131.502 134.546C131.061 134.291 130.492 133.898 130.822 133.192C131.135 132.525 131.924 132.584 132.494 132.682C134.018 132.917 135.542 133.388 137.066 133.761C138.627 134.134 140.189 134.487 141.75 134.84C142.08 134.899 142.227 134.33 141.878 134.251Z" fill="#093C34"/>
<path d="M135.046 137.607C134.238 139.196 133.412 140.766 132.604 142.355C132.2 143.12 131.851 143.944 131.373 144.69C130.877 145.455 130.216 145.847 129.445 146.24C127.994 146.966 126.433 147.554 125.037 148.398C124.413 148.79 124.009 149.497 124.541 150.183C125.203 151.027 126.506 150.694 127.388 150.537C128.6 150.321 129.757 149.889 130.859 149.34C133.155 148.163 135.101 146.318 136.497 144.042C136.699 143.728 136.222 143.434 136.02 143.748C134.789 145.788 133.081 147.437 131.079 148.575C130.124 149.104 129.096 149.536 128.049 149.791C127.461 149.948 126.837 150.085 126.213 150.105C125.643 150.144 125.496 150.223 125.221 149.614C124.872 149.261 124.909 149.026 125.313 148.908C125.441 148.849 125.551 148.79 125.68 148.732C126.855 148.143 128.049 147.574 129.224 146.985C130.143 146.534 131.043 146.142 131.667 145.259C132.402 144.219 132.916 142.983 133.504 141.845C134.183 140.53 134.863 139.215 135.524 137.921C135.689 137.567 135.212 137.273 135.046 137.607Z" fill="#093C34"/>
<path d="M143.439 141.904C148.343 140.432 153.099 138.47 157.654 136.037C159.913 134.82 162.116 133.506 164.265 132.054C166.193 130.759 168.232 129.444 169.609 127.463C169.811 127.149 169.334 126.854 169.132 127.168C167.699 129.248 165.459 130.602 163.439 131.936C161.382 133.29 159.251 134.546 157.084 135.703C152.658 138.038 148.049 139.922 143.292 141.354C142.962 141.433 143.109 142.002 143.439 141.904Z" fill="#093C34"/>
<path d="M161.492 83.9635C163.016 80.7653 166.928 81.4913 168.856 83.7673C171.17 86.5142 171.281 90.5364 171.538 94.0289C172.089 101.661 172.199 109.353 171.758 116.985C171.538 120.693 171.024 124.618 168.71 127.561C168.489 127.855 168.875 128.267 169.095 127.973C171.17 125.304 171.887 121.93 172.181 118.555C172.566 114.238 172.566 109.863 172.529 105.527C172.493 100.994 172.291 96.4423 171.905 91.9295C171.611 88.5351 171.042 84.7876 168.416 82.5312C166.175 80.6083 162.429 80.6672 160.996 83.6692C160.849 84.0027 161.327 84.297 161.492 83.9635Z" fill="#093C34"/>
<path d="M126.892 150.87C128.233 151.518 129.849 152.499 131.373 152.499C132.842 152.479 133.926 151.184 134.918 150.203C137.764 147.378 140.611 144.552 143.458 141.746C143.715 141.491 143.329 141.079 143.072 141.334C140.666 143.728 138.26 146.102 135.854 148.496C134.789 149.536 133.687 151.027 132.347 151.675C130.767 152.44 128.6 151.066 127.186 150.38C126.855 150.203 126.58 150.713 126.892 150.87Z" fill="#093C34"/>
<path d="M134.367 150.458C134.973 151.675 136.313 151.184 136.993 150.34C138.334 148.653 139.38 146.613 140.519 144.788C140.721 144.474 140.244 144.18 140.042 144.493C139.325 145.631 138.609 146.769 137.893 147.907C137.489 148.535 135.707 151.93 134.844 150.164C134.679 149.83 134.202 150.125 134.367 150.458Z" fill="#093C34"/>
<path d="M130.106 149.497C130.657 149.811 131.336 150.125 131.943 149.811C132.255 149.634 132.383 149.359 132.53 149.046C132.787 148.516 133.044 148.104 133.522 147.77C133.816 147.554 133.54 147.044 133.246 147.26C132.806 147.574 132.438 147.966 132.181 148.477C131.998 148.849 131.887 149.301 131.41 149.34C131.061 149.379 130.675 149.144 130.382 148.987C130.088 148.83 129.794 149.32 130.106 149.497Z" fill="#093C34"/>
<path d="M126.341 37.3838C125.698 38.7769 125.056 41.1118 124.854 41.877C124.56 42.9757 123.899 45.546 123.531 48.9601C123.329 50.8436 123.109 52.9038 123.293 55.6311C123.384 56.9261 123.513 58.9666 124.229 61.4977C124.707 63.2243 125.404 65.7162 127.296 68.2669C128.949 70.484 130.841 71.8771 132.347 72.7208C133.301 72.7404 134.458 72.6815 135.744 72.4265C138.058 71.9556 139.858 71.0334 141.07 70.2878C141.235 71.2885 141.456 72.348 141.731 73.4467C142.3 75.7227 142.998 77.7241 143.696 79.4507C144.449 79.3133 145.349 79.0779 146.304 78.607C149.334 77.0962 150.785 74.31 151.299 73.1524C151.024 72.0144 150.803 70.7783 150.601 69.503C149.904 64.7351 150.087 60.4774 150.528 57.0242C150.914 57.1615 151.538 57.3381 152.309 57.2989C153.815 57.2008 154.844 56.3178 155.358 55.8469C155.799 55.4545 157.801 53.5513 157.727 50.7259C157.709 50.0588 157.672 48.4303 156.588 47.5474C155.578 46.7429 154.219 47.0372 153.228 47.253C152.089 47.5081 151.244 48.0183 150.73 48.3714C151.116 47.0176 151.924 43.5447 150.73 39.5029C150.473 38.6395 148.765 33.1457 143.733 30.7716C136.901 27.5146 128.692 32.3413 126.341 37.3838Z" fill="white"/>
<path opacity="0.24" d="M147.094 37.5016C147.241 39.3263 147.351 41.9751 147.094 45.1144C146.304 54.6305 142.778 61.2427 141.86 62.8908C140.464 65.4023 138.077 69.0517 134.257 72.6423C135.395 72.4854 136.699 72.2107 138.095 71.6809C141.933 70.229 144.504 67.7372 145.9 66.1086C146.01 68.2865 146.359 70.9353 147.186 73.8392C147.553 75.0753 147.957 76.2133 148.379 77.2336C149.353 75.8798 150.308 74.5259 151.281 73.1525C151.079 71.8771 150.895 70.5233 150.767 69.1302C150.344 64.9118 150.344 61.0269 150.565 57.5736C151.391 57.5932 152.585 57.5147 153.852 56.985C159.398 54.6305 162.557 45.2714 159.564 40.17C159.435 39.9542 158.774 38.8554 157.415 37.8744C153.209 34.8528 147.865 37.1484 147.094 37.5016Z" fill="#81B0B3"/>
<path d="M125 41.2884C124.633 39.9346 124.119 37.3446 124.652 34.1661C124.817 33.185 125.386 30.0261 127.406 27.5343C130.363 23.9044 134.073 24.5911 138.885 22.7468C141.933 21.5892 146.12 19.1562 150.363 13.4269C149.977 15.546 149.591 17.6846 149.206 19.8037C149.867 19.9999 152.089 20.51 154.366 19.3132C158.15 17.3315 158.48 12.544 158.498 12.3282C158.958 13.4269 159.784 15.8599 159.417 18.96C159.16 21.079 158.443 22.6683 157.929 23.6297C158.15 23.8848 159.325 25.1798 160.684 24.9836C162.337 24.7481 163.879 22.3348 163.439 19.2151C163.806 20.3727 164.247 22.2759 164.137 24.6108C163.99 27.4558 163.108 29.5944 162.52 30.7521C162.667 30.8894 163.604 31.792 164.926 31.6154C166.083 31.4584 167.075 30.5559 167.461 29.2805C167.369 30.5951 167.148 32.4983 166.432 34.6762C165.459 37.6193 164.651 37.8548 164.247 39.9542C163.604 43.2505 165.257 44.3689 164.816 47.312C164.449 49.7842 162.943 51.3342 161.033 53.3159C157.562 56.9065 153.577 58.849 150.234 59.9281C150.381 58.8293 150.546 57.7306 150.693 56.6318C151.116 56.9065 151.85 57.2793 152.769 57.24C154.642 57.1616 155.817 55.3761 156.442 54.4147C157.158 53.3355 158.352 51.4912 157.709 49.5095C157.176 47.9006 155.762 47.2335 155.634 47.1746C153.981 46.429 151.85 47.0961 150.473 48.9012C149.702 45.6638 148.949 42.446 148.177 39.2086C145.569 37.4427 142.98 35.6965 140.372 33.9306C139.087 33.6755 135.579 33.1654 131.649 35.0294C127.682 36.913 125.662 40.1111 125 41.2884Z" fill="#0D7C66"/>
<path d="M124.725 41.2099C123.164 47.4493 122.227 54.0811 123.66 60.4579C124.835 65.6378 127.81 71.5436 132.879 73.231C133.21 73.3487 133.357 72.7797 133.026 72.662C127.939 70.9746 125.092 64.8333 124.046 59.6534C122.815 53.571 123.752 47.2924 125.239 41.3669C125.349 41.0137 124.817 40.8568 124.725 41.2099Z" fill="#093C34"/>
<path d="M133.283 73.1328C141.749 72.2106 148.82 65.6769 150.803 56.8084C150.877 56.4356 150.363 56.2786 150.271 56.6514C148.343 65.2257 141.529 71.6416 133.283 72.5442C132.934 72.5834 132.916 73.1721 133.283 73.1328Z" fill="#093C34"/>
<path d="M150.326 56.9653C154.109 59.4375 157.801 54.2577 158.039 50.6278C158.168 48.705 157.341 47.2334 155.56 46.6841C153.907 46.1739 152.107 46.7037 150.932 48.0379C150.693 48.3126 151.079 48.7246 151.318 48.4499C152.291 47.3315 153.76 46.841 155.174 47.1746C155.909 47.3512 156.717 47.7828 157.139 48.4892C157.599 49.2544 157.543 50.3139 157.433 51.1576C156.993 54.1988 153.834 58.5546 150.601 56.4356C150.308 56.259 150.014 56.7691 150.326 56.9653Z" fill="#093C34"/>
<path d="M150.289 56.9261C149.573 62.3611 149.83 67.8745 151.042 73.2113C151.134 73.5841 151.667 73.4272 151.575 73.0544C150.381 67.8156 150.124 62.4003 150.822 57.0831C150.859 56.7103 150.326 56.5533 150.289 56.9261Z" fill="#093C34"/>
<path d="M140.795 70.3663C141.364 73.5449 142.245 76.6254 143.457 79.6077C143.604 79.9609 144.082 79.647 143.935 79.3134C142.741 76.3899 141.878 73.3487 141.327 70.2094C141.254 69.8366 140.739 69.9936 140.795 70.3663Z" fill="#093C34"/>
<path d="M143.843 79.6862C147.388 79.0779 150.381 76.4684 151.722 72.917C151.85 72.5638 151.318 72.4069 151.189 72.76C149.922 76.1348 147.039 78.5482 143.696 79.1172C143.347 79.176 143.494 79.745 143.843 79.6862Z" fill="#093C34"/>
<path d="M141.235 71.053C141.988 71.0922 142.502 70.5429 143.072 70.072C143.825 69.4441 144.541 68.777 145.202 68.0706C146.433 66.7561 147.424 65.2453 148.067 63.5186C148.196 63.1655 147.663 63.0085 147.534 63.3617C146.965 64.8921 146.084 66.2459 145.018 67.4232C144.541 67.9725 144.027 68.4631 143.494 68.9536C142.906 69.4833 142.062 70.5036 141.235 70.4644C140.886 70.4448 140.886 71.0334 141.235 71.053Z" fill="#093C34"/>
<path d="M141.272 70.7392C142.833 69.6601 144.284 68.4239 145.643 67.0701C145.9 66.8151 145.514 66.3834 145.257 66.6581C143.935 67.9923 142.521 69.1892 140.997 70.2487C140.684 70.4253 140.978 70.9354 141.272 70.7392Z" fill="#093C34"/>
<path d="M130.473 42.3479C129.445 47.3512 128.857 52.433 128.729 57.554C128.729 57.8483 129.096 57.9464 129.243 57.711C129.959 56.4945 130.675 55.2584 131.392 54.0419C131.575 53.728 131.098 53.414 130.914 53.7476C130.198 54.9641 129.482 56.2002 128.765 57.4167C128.931 57.4755 129.114 57.5148 129.28 57.5736C129.408 52.5115 129.996 47.4689 131.006 42.5245C131.079 42.1321 130.547 41.9751 130.473 42.3479Z" fill="#093C34"/>
<path d="M131.208 64.9314C130.767 64.0485 130.473 63.1067 130.4 62.106C130.345 61.3997 130.492 58.535 131.74 59.673C132.402 60.2813 132.31 61.6155 132.328 62.4984C132.328 62.9105 132.328 63.3421 132.291 63.7541C132.273 64.0485 132.236 64.3428 132.181 64.6175C131.704 64.9706 131.336 64.951 131.098 64.5782C130.859 64.3035 130.455 64.7156 130.712 64.9902C131.502 65.8536 132.53 65.8928 132.751 64.539C132.916 63.5776 132.916 62.5573 132.842 61.5959C132.787 60.8306 132.787 59.7319 132.255 59.1433C131.465 58.2799 130.345 59.0844 130.033 60.0066C129.463 61.6547 130.014 63.7345 130.749 65.2257C130.896 65.5593 131.373 65.2649 131.208 64.9314Z" fill="#093C34"/>
<path d="M135.01 47.2727C135.56 50.0393 138.958 50.2551 139.968 47.7044C140.097 47.3512 139.564 47.1942 139.436 47.5474C138.609 49.6272 135.964 49.2348 135.542 47.1158C135.469 46.7626 134.936 46.8999 135.01 47.2727Z" fill="#093C34"/>
<path d="M133.926 40.4643C134.624 38.7965 136.424 37.9921 138.077 38.3649C139.784 38.7573 141.088 40.17 141.933 41.72C142.117 42.0536 142.594 41.7593 142.411 41.4257C141.437 39.6402 139.895 38.051 137.911 37.737C136.13 37.4623 134.22 38.3649 133.449 40.1504C133.302 40.5232 133.779 40.8175 133.926 40.4643Z" fill="#093C34"/>
<path d="M123.164 41.1119C123.66 40.0131 124.523 38.8162 125.79 38.8359C127.002 38.8555 127.884 39.9935 128.49 40.9941C128.674 41.3081 129.151 41.0138 128.967 40.6998C128.269 39.503 127.223 38.2669 125.79 38.2472C124.321 38.2276 123.293 39.5226 122.705 40.8176C122.54 41.1511 123.017 41.4454 123.164 41.1119Z" fill="#093C34"/>
<path d="M126.415 50C126.739 50 127.002 48.7087 127.002 47.1158C127.002 45.5228 126.739 44.2315 126.415 44.2315C126.09 44.2315 125.827 45.5228 125.827 47.1158C125.827 48.7087 126.09 50 126.415 50Z" fill="#093C34"/>
<path d="M128.104 81.04C128.049 81.766 127.976 82.7667 127.939 83.9243C127.774 87.8877 127.921 90.8896 127.976 91.6941C128.123 94.3037 128.453 97.7177 129.225 101.681C128.49 102.584 127.388 103.918 125.974 105.487C123.293 108.489 121.915 110.02 119.711 111.609C117.25 113.375 115.543 113.924 114.624 114.179C113.467 114.474 112.365 114.748 111.025 114.435C108.839 113.905 107.535 112.178 107.058 111.511C105.846 109.863 105.57 108.254 105.074 105.115C104.707 102.819 104.634 101.073 104.523 97.698C104.468 96.0891 104.395 94.1271 104.432 91.4979C104.468 88.5352 104.615 85.023 105.019 81.0989C105.203 79.333 105.46 77.1551 105.864 74.6829C105.552 74.212 105.221 73.7411 104.872 73.2506C104.505 72.7405 104.156 72.2499 103.789 71.7594C102.852 72.6031 101.934 73.4664 100.997 74.3101C100.759 74.4082 100.336 74.5652 99.822 74.5063C98.8486 74.4082 98.2793 73.6823 98.0773 73.4468C97.1774 72.3481 97.3059 70.955 97.3427 70.6803C98.6099 69.2087 99.8771 67.7568 101.163 66.2852C101.181 65.4416 101.291 64.3428 101.603 63.1263C101.842 62.2238 102.136 61.4782 102.411 60.8503C102.65 60.3402 102.981 59.7712 103.403 59.2022C104.156 58.1426 104.964 57.3971 105.625 56.8869C105.093 57.142 104.964 57.142 104.927 57.1027C104.836 56.9458 105.699 55.7882 106.911 55.6704C107.59 55.5919 108.123 55.8666 108.49 56.0432C109.06 56.3375 109.445 56.7103 109.684 56.985C110.823 55.9451 111.961 54.9052 113.1 53.8849C113.504 54.14 113.908 54.4343 114.312 54.7286C115.249 55.4154 116.093 56.1021 116.846 56.7692C116.571 57.142 116.222 57.554 115.781 57.9661C115.047 58.6528 114.312 59.0648 113.743 59.3395C114.092 59.4572 114.716 59.7319 115.028 60.3794C115.341 61.0073 115.212 61.694 115.028 62.5573C114.9 63.1459 114.734 63.6168 114.606 63.9308C114.679 64.7548 114.716 65.8732 114.496 67.1289C114.147 69.1891 113.339 70.7195 112.788 71.6025C112.769 72.3677 112.751 73.5645 112.788 75.0361C112.935 81.0989 113.761 84.6502 114.294 89.1238C114.606 91.6745 114.918 95.4613 114.826 100.229C115.249 99.9348 115.855 99.4639 116.534 98.8557C118.261 97.3056 119.362 95.7556 120.813 93.4796C122.246 91.2624 123.182 89.6143 124.45 87.4168C125.239 85.9845 126.506 83.8066 128.104 81.04Z" fill="white"/>
<path opacity="0.24" d="M111.41 63.1262C111.025 64.0288 110.639 64.951 110.253 65.8927C109.133 68.7181 108.215 71.4258 107.462 74.0157C107.296 78.0968 107.205 81.5109 107.131 83.9831C107.039 87.7306 107.26 92.2041 107.664 101.151C107.829 104.84 107.976 107.077 109.592 108.705C111.282 110.393 113.632 110.432 114.955 110.432C122.007 110.412 127.278 103.996 128.729 102.132C126.764 105.703 124.523 108.038 122.999 109.412C121.272 110.962 119.05 112.904 115.598 113.865C112.677 114.69 111.355 114.513 111.006 114.434C108.49 113.787 107.094 111.55 106.599 110.785C105.405 108.882 105.019 106.9 104.799 102.642C104.578 98.267 104.817 97.1093 104.891 91.0858C104.946 85.3369 104.744 83.7084 105.148 79.7254C105.387 77.3905 105.68 75.4677 105.919 74.1727C105.203 73.3682 104.487 72.5638 103.77 71.779C103.164 72.348 102.54 72.8973 101.916 73.4663C101.511 73.8391 101.089 74.2119 100.685 74.5651C100.318 74.6044 99.7852 74.5847 99.2158 74.3297C97.7466 73.6626 96.8284 71.7201 97.2875 71.053C97.5813 70.6017 98.3527 70.9549 99.4179 70.9549C101.254 70.9745 102.485 69.9739 104.927 68.0903C106.654 66.7364 108.637 65.2256 111.41 63.1262Z" fill="#81B0B3"/>
<path d="M127.865 80.883C123.623 87.142 120.483 94.3232 115.12 99.6601C114.863 99.9151 115.249 100.327 115.506 100.072C120.905 94.696 124.064 87.4756 128.343 81.1773C128.563 80.883 128.086 80.5887 127.865 80.883Z" fill="#093C34"/>
<path d="M112.071 114.886C119.344 114.376 124.56 107.862 128.931 102.329C129.151 102.034 128.765 101.622 128.545 101.917C124.303 107.332 119.16 113.807 112.09 114.317C111.723 114.317 111.723 114.905 112.071 114.886Z" fill="#093C34"/>
<path d="M108.619 59.6142C108.656 61.1642 109.611 62.4984 111.006 62.9301C111.355 63.0282 111.502 62.4592 111.153 62.3611C109.996 62.0079 109.207 60.8895 109.17 59.6142C109.151 59.2414 108.6 59.2414 108.619 59.6142Z" fill="#093C34"/>
<path d="M109.188 59.4376C109.372 57.7306 112.218 58.9667 112.99 59.3983C113.743 59.8104 114.496 60.2224 114.661 61.2034C114.79 61.949 114.569 62.7339 114.386 63.4598C114.294 63.8326 114.826 63.9896 114.918 63.6168C115.175 62.6358 115.451 61.5174 115.065 60.556C114.698 59.5749 113.688 59.1236 112.861 58.692C112.016 58.2603 111.098 57.9464 110.143 58.0641C109.758 58.123 109.262 58.2211 108.949 58.4958C108.619 58.7705 108.692 58.9667 108.637 59.4572C108.601 59.8104 109.151 59.8104 109.188 59.4376Z" fill="#093C34"/>
<path d="M114.202 63.3421C114.147 64.8333 114.459 66.2852 114.128 67.7764C113.816 69.1498 113.192 70.4252 112.567 71.6613C112.402 71.9948 112.88 72.2891 113.045 71.9556C113.688 70.6606 114.33 69.346 114.661 67.9333C115.01 66.4029 114.698 64.8921 114.753 63.3421C114.771 62.9497 114.22 62.9497 114.202 63.3421Z" fill="#093C34"/>
<path d="M112.567 71.6808C112.145 82.021 114.918 92.1453 114.477 102.485C114.459 102.858 115.01 102.858 115.028 102.485C115.469 92.1453 112.696 82.021 113.118 71.6808C113.137 71.308 112.586 71.308 112.567 71.6808Z" fill="#093C34"/>
<path d="M103.55 71.8967C104.101 72.7207 104.689 73.5056 105.35 74.2315C105.589 74.5062 105.974 74.0942 105.735 73.8195C105.111 73.1131 104.542 72.3872 104.028 71.6024C103.807 71.2884 103.33 71.5827 103.55 71.8967Z" fill="#093C34"/>
<path d="M105.662 74.0746C104.615 80.4513 104.101 86.9262 104.119 93.401C104.138 96.6188 104.285 99.8562 104.578 103.054C104.817 105.782 105.111 108.646 106.452 111.04C107.664 113.218 109.794 114.866 112.218 114.807C112.567 114.788 112.567 114.199 112.218 114.219C108.821 114.317 106.635 111.079 105.846 107.901C104.964 104.408 104.891 100.602 104.762 97.0112C104.487 89.3984 104.983 81.7463 106.213 74.2512C106.25 73.8588 105.717 73.7018 105.662 74.0746Z" fill="#093C34"/>
<path d="M102.191 65.2649C100.465 66.8149 98.7935 68.4434 97.2141 70.1505C96.957 70.4251 97.3611 70.8372 97.5998 70.5625C99.1976 68.8555 100.85 67.227 102.577 65.6769C102.852 65.4415 102.467 65.0294 102.191 65.2649Z" fill="#093C34"/>
<path d="M97.0488 70.6802C96.7733 72.9562 98.3895 74.8791 100.538 74.8594C100.887 74.8594 100.887 74.2708 100.538 74.2708C98.6833 74.2904 97.361 72.6227 97.5998 70.6802C97.6549 70.3074 97.1039 70.3074 97.0488 70.6802Z" fill="#093C34"/>
<path d="M97.5631 70.543C99.4914 70.6018 100.832 72.4462 100.428 74.4475C100.355 74.8203 100.887 74.9773 100.961 74.6045C101.456 72.1911 99.8771 70.0328 97.5631 69.9543C97.2142 69.9543 97.2142 70.543 97.5631 70.543Z" fill="#093C34"/>
<path d="M101.181 74.5063C103.275 72.4658 105.405 70.4448 107.444 68.3454C108.38 67.384 109.28 66.403 110.125 65.3434C110.584 64.7744 111.741 63.6561 111.759 62.8712C111.759 62.7731 111.704 62.6554 111.631 62.6162C111.594 62.5965 111.557 62.5769 111.539 62.5769C111.429 62.5181 111.282 62.5181 111.208 62.6162C111.19 62.6358 111.172 62.6554 111.153 62.6946C110.933 62.9889 111.319 63.401 111.539 63.1067C111.557 63.0871 111.576 63.0674 111.594 63.0282C111.484 63.0478 111.374 63.0674 111.263 63.0674C111.227 62.8908 111.172 62.8908 111.098 63.0871C111.006 63.2244 110.915 63.3617 110.804 63.4991C110.584 63.7934 110.382 64.0877 110.143 64.382C109.776 64.8725 109.372 65.3434 108.986 65.8143C108.178 66.7561 107.333 67.6391 106.47 68.5024C104.597 70.386 102.687 72.2107 100.795 74.0747C100.52 74.3494 100.924 74.7614 101.181 74.5063Z" fill="#093C34"/>
<path d="M101.42 66.3637C101.548 65.4219 101.677 64.4801 101.805 63.5383C101.897 62.832 101.971 62.0471 102.338 61.4193C103.183 59.9673 104.376 61.0072 105.019 61.9883C105.295 62.4003 105.552 62.8516 105.827 63.2636C105.974 63.4991 106.69 64.3428 106.599 64.6371C106.69 64.5586 106.782 64.4997 106.856 64.4212C106.819 64.4212 106.801 64.4212 106.764 64.4212C106.415 64.4016 106.415 64.9902 106.764 65.0099C106.801 65.0099 106.819 65.0099 106.856 65.0099C106.984 65.0099 107.095 64.9118 107.113 64.794C107.241 64.3035 106.929 64.0092 106.69 63.6168C106.231 62.8908 105.791 62.1452 105.313 61.4389C104.817 60.7129 104.174 60.0066 103.256 60.1047C102.375 60.2028 101.842 60.9288 101.567 61.7724C101.108 63.1655 101.071 64.7548 100.869 66.2067C100.832 66.5795 101.365 66.7365 101.42 66.3637Z" fill="#093C34"/>
<path d="M102.283 64.1466C102.779 65.1865 103.605 66.246 104.781 66.3245C105.754 66.403 106.672 65.8144 106.929 64.7941C107.021 64.4213 106.489 64.2643 106.397 64.6371C106.158 65.5789 105.185 65.9321 104.377 65.6378C103.605 65.3435 103.109 64.6175 102.76 63.8719C102.595 63.5188 102.118 63.8131 102.283 64.1466Z" fill="#093C34"/>
<path d="M102.962 60.3205C103.054 59.3591 104.083 59.104 104.781 59.3591C105.515 59.6142 106.084 60.3205 106.599 60.8895C107.003 61.3408 107.792 61.9687 107.903 62.5965C108.05 63.4402 107.058 64.0092 106.397 64.225C106.066 64.3232 106.195 64.8922 106.544 64.794C107.352 64.539 108.527 63.7738 108.656 62.7535C108.711 62.3415 108.472 62.1256 108.215 61.8313C107.701 61.2427 107.205 60.6737 106.672 60.1047C105.956 59.3199 105.038 58.4762 103.936 58.6724C103.109 58.8097 102.503 59.3983 102.411 60.3009C102.375 60.6933 102.926 60.6933 102.962 60.3205Z" fill="#093C34"/>
<path d="M103.954 58.8686C104.211 58.5547 104.34 58.1426 104.578 57.8287C105.166 57.0439 106.084 57.7698 106.69 58.2407C107.866 59.1237 109.115 60.7326 108.05 62.263C107.847 62.5769 108.325 62.8712 108.527 62.5573C109.666 60.9091 108.545 59.0059 107.241 57.9464C106.635 57.4559 105.717 56.573 104.891 56.828C104.156 57.0439 104.028 57.9464 103.568 58.4762C103.33 58.7312 103.715 59.1433 103.954 58.8686Z" fill="#093C34"/>
<path d="M105.809 57.0831C106.452 56.2394 107.297 55.3565 108.288 56.2394C108.949 56.8084 109.372 57.6128 109.611 58.4565C109.721 58.8097 110.235 58.6724 110.143 58.2996C109.831 57.1616 109.115 55.847 108.05 55.3761C106.966 54.9052 106.066 55.8273 105.423 56.671C105.203 56.9457 105.589 57.3774 105.809 57.0831Z" fill="#093C34"/>
<path d="M109.868 57.1616C111.006 56.1217 112.145 55.0818 113.284 54.0615C113.559 53.8064 113.155 53.3944 112.898 53.6495C111.759 54.6894 110.621 55.7293 109.482 56.7496C109.207 57.0046 109.611 57.4167 109.868 57.1616Z" fill="#093C34"/>
<path d="M113.926 59.6731C115.01 58.8294 116.057 57.9268 117.03 56.9458C117.287 56.6907 116.901 56.2787 116.644 56.5338C115.689 57.4755 114.698 58.3585 113.651 59.1629C113.357 59.3787 113.633 59.8889 113.926 59.6731Z" fill="#093C34"/>
<path d="M122.172 58.2015C128.298 58.2015 133.265 52.8956 133.265 46.3506C133.265 39.8055 128.298 34.4996 122.172 34.4996C116.046 34.4996 111.08 39.8055 111.08 46.3506C111.08 52.8956 116.046 58.2015 122.172 58.2015Z" stroke="#093C34" stroke-width="3" stroke-miterlimit="10"/>
<path d="M115.451 47.8025C119.528 45.0163 123.697 42.3871 127.957 39.9149C128.269 39.7383 127.994 39.2282 127.682 39.4048C123.421 41.8574 119.252 44.4865 115.175 47.2923C114.881 47.5081 115.157 48.0183 115.451 47.8025Z" fill="#093C34"/>
<path d="M115.91 52.9431C119.271 50.3139 122.668 47.7829 126.139 45.3106C126.433 45.0948 126.158 44.5847 125.864 44.8005C122.411 47.2727 118.995 49.8234 115.634 52.433C115.34 52.6488 115.616 53.1589 115.91 52.9431Z" fill="#093C34"/>
</g>
<defs>
<clipPath id="clip0_2_1323">
<rect width="223" height="216" fill="white"/>
</clipPath>
</defs>
</svg>
